<svg width="45" height="48" viewBox="0 0 45 48" fill="none" xmlns="http://www.w3.org/2000/svg">
                            <path d="M22.9985 47.78L44.6985 26.08C44.7701 26.0108 44.8272 25.928 44.8665 25.8365C44.9058 25.745 44.9264 25.6465 44.9272 25.5469C44.928 25.4474 44.909 25.3486 44.8713 25.2565C44.8335 25.1643 44.7778 25.0806 44.7073 25.0102C44.6369 24.9398 44.5531 24.8842 44.4609 24.8465C44.3687 24.8088 44.27 24.7899 44.1704 24.7908C44.0708 24.7917 43.9724 24.8125 43.8809 24.8518C43.7894 24.8912 43.7067 24.9483 43.6375 25.02L23.1965 45.461C23.2059 45.4282 23.213 45.3948 23.2175 45.361L23.2175 0.749999C23.2175 0.551087 23.1385 0.360321 22.9979 0.219669C22.8572 0.0790167 22.6665 -9.7305e-07 22.4675 -9.81745e-07C22.2686 -9.9044e-07 22.0779 0.0790166 21.9372 0.219669C21.7966 0.360321 21.7175 0.551087 21.7175 0.749999L21.7175 45.357C21.7221 45.3908 21.7291 45.4242 21.7385 45.457L1.29854 25.02C1.22988 24.9463 1.14707 24.8872 1.05508 24.8462C0.963076 24.8052 0.863763 24.7832 0.76306 24.7814C0.662358 24.7796 0.562328 24.7982 0.46894 24.8359C0.375551 24.8736 0.290719 24.9297 0.2195 25.001C0.148282 25.0722 0.0921366 25.157 0.0544156 25.2504C0.0166945 25.3438 -0.0018313 25.4438 -5.45223e-05 25.5445C0.00172226 25.6452 0.0237652 25.7445 0.0647572 25.8365C0.105749 25.9285 0.164849 26.0113 0.238536 26.08L21.9385 47.78C22.0792 47.9204 22.2698 47.9993 22.4685 47.9993C22.6673 47.9993 22.8579 47.9204 22.9985 47.78Z" fill="#FFFFFF"></path>
                            </svg>